<svg id="Layer_1" data-name="Layer 1" xmlns="http://www.w3.org/2000/svg" viewBox="0 0 90.11 54.29"><defs><style>.cls-1{fill:#fff;}</style></defs><title>Draganddrop</title><path class="cls-1" d="M70.65,17.75l-0.81,0A19.3,19.3,0,0,0,51.73,5.36c-0.83,0-1.84.05-2.79,0.15A23.28,23.28,0,0,0,33.64,0c-12.41,0-22.57,8.63-25,21.1C3.39,24.66,0,30.44,0,36A18.47,18.47,0,0,0,18.62,54.29H34.83V50.79H18.62A15,15,0,0,1,3.49,36c0-4.63,3-9.49,7.7-12.38l0.68-.42L12,22.43C13.82,11.28,22.72,3.49,33.64,3.49A20.14,20.14,0,0,1,47.27,8.66l0.59,0.5,0.76-.1a26.93,26.93,0,0,1,3.12-.2A16,16,0,0,1,67,20.12l0.42,1.37,1.43-.14a18.34,18.34,0,0,1,1.85-.1c8.65,0,16,6.77,16,14.77s-7.31,14.77-16,14.77H54.06v3.49H70.65c10.55,0,19.46-8.37,19.46-18.27S81.2,17.75,70.65,17.75Z"/><polygon class="cls-1" points="55.22 40.91 57.72 38.47 45.15 25.58 32.34 38.71 34.84 41.15 43.44 32.34 43.44 54.29 46.93 54.29 46.93 32.41 55.22 40.91"/></svg>