<svg id="Layer_1" data-name="Layer 1" xmlns="http://www.w3.org/2000/svg" viewBox="0 0 65 65"><defs><style>.cls-1{fill:#00293f;}</style></defs><title>Embed_Upload</title><path class="cls-1" d="M32.5,1A31.5,31.5,0,1,1,1,32.5,31.54,31.54,0,0,1,32.5,1m0-1A32.5,32.5,0,1,0,65,32.5,32.5,32.5,0,0,0,32.5,0h0Z"/><rect class="cls-1" x="19.53" y="31.75" width="25.12" height="1.5" transform="translate(-7.25 55.71) rotate(-75.91)"/><polygon class="cls-1" points="24.99 38.05 18.68 31.74 24.97 25.46 26.03 26.52 20.8 31.74 26.05 36.99 24.99 38.05"/><polygon class="cls-1" points="40.01 38.05 38.95 36.99 44.2 31.74 38.97 26.52 40.03 25.46 46.32 31.74 40.01 38.05"/></svg>