<svg id="Layer_1" data-name="Layer 1" xmlns="http://www.w3.org/2000/svg" viewBox="0 0 65 65"><defs><style>.cls-1{fill:#00293f;}</style></defs><title>Reach_Upload</title><path class="cls-1" d="M40.16,45H24.73V44.42s0-4.53,0-6.8A7.73,7.73,0,0,1,40,36.24a5.58,5.58,0,0,1,.12,1.08c0,2.46,0,7.37,0,7.37V45Zm-14.27-1.1H39.05c0-2.08,0-4.13,0-6.18a6,6,0,0,0,0-.94,6.69,6.69,0,0,0-6.44-5.64,6.54,6.54,0,0,0-6.63,5.6C25.73,39.07,25.89,41.46,25.89,43.88Z"/><path class="cls-1" d="M42,42.29s0-3.07,0-4.33a8.59,8.59,0,0,0-3.15-6.78L38.71,31a6.33,6.33,0,0,1,10.1,5.15c0,1.9,0,6.14,0,6.14H42m5.65-1.11V40.63q0-2.27,0-4.53A5.3,5.3,0,0,0,43.92,31a5,5,0,0,0-3.38.17l0.14,0.18a9.56,9.56,0,0,1,2.39,5.38c0.12,1.3.06,2.61,0.08,3.91,0,0.16,0,.33,0,0.5H47.7Z"/><path class="cls-1" d="M22.83,42.26H16.2V41.89s0-4.06,0-6.09a6.17,6.17,0,0,1,3.59-5.48,5.76,5.76,0,0,1,6.2.49c0.07,0,.14.11,0.24,0.19a9,9,0,0,0-2.5,3,8.19,8.19,0,0,0-.93,3.81C22.84,39.28,22.83,42.26,22.83,42.26Zm-5.48-1.12h4.37s0-2.11,0-3.15a9.67,9.67,0,0,1,1.76-5.62c0.27-.4.59-0.77,0.9-1.18l-0.3-.14c-3.14-1.18-6.45,1.42-6.69,4.35C17.23,37.3,17.35,41.14,17.35,41.14Z"/><path class="cls-1" d="M32.45,20a4.24,4.24,0,0,1,0,8.48A4.24,4.24,0,1,1,32.45,20Zm3.12,4.25a3.13,3.13,0,0,0-6.26,0A3.13,3.13,0,1,0,35.57,24.27Z"/><path class="cls-1" d="M42.49,28.34A3.45,3.45,0,1,1,46,24.93,3.44,3.44,0,0,1,42.49,28.34Zm0-5.79a2.35,2.35,0,1,0,2.33,2.35A2.35,2.35,0,0,0,42.54,22.55Z"/><path class="cls-1" d="M22.48,28.34A3.45,3.45,0,1,1,26,24.91,3.43,3.43,0,0,1,22.48,28.34Zm2.36-3.46a2.34,2.34,0,1,0-2.35,2.36A2.32,2.32,0,0,0,24.85,24.88Z"/><path class="cls-1" d="M32.5,1A31.5,31.5,0,1,1,1,32.5,31.54,31.54,0,0,1,32.5,1m0-1A32.5,32.5,0,1,0,65,32.5,32.5,32.5,0,0,0,32.5,0h0Z"/></svg>